<svg width="136" height="136" viewBox="0 0 136 136" fill="none" xmlns="http://www.w3.org/2000/svg">
<path d="M61.1273 132.718L2.73291 74.3237C-0.91097 70.6798 -0.91097 64.7715 2.73291 61.1276L61.1273 2.73291C64.7712 -0.91097 70.6795 -0.91097 74.3234 2.73291L132.718 61.1273C136.362 64.7712 136.362 70.6795 132.718 74.3234L74.3237 132.718C70.6795 136.362 64.7715 136.362 61.1273 132.718Z" fill="white"/>
<path d="M55.5504 63.3527C55.4288 63.0721 55.0361 63.0721 54.9145 63.3433C47.1347 80.5581 70.3992 93.5744 81.3396 77.7902C81.4237 77.6685 81.5265 77.6405 81.6575 77.7247H81.6668C81.7602 77.7902 81.7791 77.865 81.7323 77.9677C78.8522 83.6996 72.6712 87.3183 66.3971 86.6827C52.586 85.28 46.162 71.2352 53.3247 59.2755C53.5023 58.9856 53.5398 58.6678 53.4464 58.3403C50.5477 47.8022 51.7166 37.8249 56.9624 28.4181C57.5329 27.3802 58.234 26.4357 59.0475 25.566C66.5374 17.5711 71.2596 29.484 72.5219 34.7484C72.5499 34.8607 72.5126 34.9448 72.4096 34.9914C72.2693 35.0662 72.0917 35.0007 72.0356 34.8511C70.848 32.0738 66.958 22.555 62.6753 25.0889C60.8239 26.1924 59.3372 28.5674 58.4395 30.475C54.9517 37.9649 54.1569 46.2031 56.0365 55.1983C56.13 55.6471 56.3544 55.7312 56.7097 55.4413C61.6002 51.5048 69.3427 49.3352 74.9438 53.0008C80.0214 56.3204 81.2462 63.4083 78.3661 68.4762C76.3744 71.9826 73.2138 73.8154 68.9032 73.9651C62.526 74.1807 57.9724 68.8977 55.5504 63.3527ZM75.6077 59.8649C72.8959 52.0289 62.5167 54.6939 58.0003 59.07C57.7384 59.3223 57.6825 59.6122 57.8228 59.949C60.0951 65.1386 63.91 71.2913 70.3061 70.0197C74.9625 69.0938 77.0852 64.1473 75.6077 59.8649Z" fill="#008080"/>
<path d="M97.2176 91.8161L38.2425 99.0723C37.8964 99.1192 37.7562 98.9693 37.803 98.6235L39.7947 83.8585L45.3677 44.6978C45.4049 44.4547 45.5452 44.3331 45.7883 44.3331L50.0337 44.3706C50.2206 44.3796 50.305 44.4736 50.2956 44.6512L50.2767 44.9318C50.2767 44.969 50.2581 44.9879 50.2115 44.9879C48.9582 44.9411 47.8082 44.9972 46.7703 45.1469C46.4059 45.1937 46.2001 45.4085 46.1722 45.7828L42.6372 84.3265L41.6086 94.6778C41.5807 94.9488 41.7021 95.0612 41.964 95.0239L92.7573 88.4972C93.0472 88.4599 93.2437 88.17 93.1689 87.8891L92.271 84.3079L82.668 42.2202C82.6305 42.0238 82.4622 41.8838 82.2658 41.8648C75.3833 41.3601 68.464 40.9486 61.507 40.6398C61.4046 40.6398 61.3577 40.5836 61.3484 40.4811C61.3478 40.4729 61.3475 40.4648 61.3475 40.4569C61.3475 40.3408 61.4122 40.2745 61.5259 40.2658C62.2926 40.1627 63.0409 40.0972 63.7796 40.0789C70.1664 39.9011 76.7956 39.8452 83.6687 39.892C84.0334 39.892 84.2578 40.0696 84.3512 40.4156L95.619 83.4013L97.6291 91.2183C97.7223 91.5731 97.582 91.7693 97.2176 91.8161Z" fill="#008080"/>
</svg>
