<svg width="86" height="86" viewBox="0 0 86 86" fill="none" xmlns="http://www.w3.org/2000/svg">
<path d="M39.1122 83.7268L2.27341 46.888C-0.0253801 44.5892 -0.0253801 40.8619 2.27341 38.5631L39.1122 1.72409C41.411 -0.574697 45.1383 -0.574697 47.4371 1.72409L84.2759 38.5629C86.5747 40.8617 86.5747 44.589 84.2759 46.8878L47.4373 83.7268C45.1383 86.0256 41.4112 86.0256 39.1122 83.7268Z" fill="#008080"/>
<path d="M35.594 39.9667C35.5173 39.7897 35.2696 39.7897 35.1928 39.9608C30.2849 50.821 44.9616 59.0324 51.8635 49.0748C51.9165 48.998 51.9813 48.9804 52.064 49.0335H52.0698C52.1288 49.0748 52.1407 49.122 52.1112 49.1868C50.2942 52.8028 46.3949 55.0857 42.4368 54.6847C33.7239 53.7999 29.6712 44.9395 34.1899 37.3946C34.3019 37.2117 34.3256 37.0112 34.2667 36.8046C32.438 30.1565 33.1754 23.8622 36.4848 17.9278C36.8447 17.273 37.287 16.6772 37.8002 16.1285C42.5253 11.0849 45.5043 18.6002 46.3007 21.9214C46.3183 21.9922 46.2948 22.0453 46.2298 22.0747C46.1413 22.1219 46.0293 22.0806 45.9939 21.9862C45.2447 20.2341 42.7906 14.229 40.0889 15.8276C38.9209 16.5237 37.9829 18.022 37.4167 19.2255C35.2163 23.9505 34.7149 29.1477 35.9007 34.8224C35.9596 35.1056 36.1012 35.1587 36.3254 34.9758C39.4106 32.4923 44.295 31.1236 47.8286 33.4361C51.0318 35.5303 51.8045 40.0018 49.9876 43.199C48.7311 45.411 46.7372 46.5673 44.0178 46.6617C39.9947 46.7977 37.1219 43.4648 35.594 39.9667ZM48.2474 37.7664C46.5367 32.823 39.9888 34.5042 37.1396 37.2649C36.9743 37.4241 36.9391 37.607 37.0276 37.8195C38.4611 41.0934 40.8678 44.9749 44.9028 44.1727C47.8404 43.5886 49.1795 40.468 48.2474 37.7664Z" fill="white"/>
<path d="M61.8802 57.9233L24.6751 62.5009C24.4568 62.5305 24.3683 62.4359 24.3979 62.2178L25.6544 52.9031L29.1701 28.1981C29.1936 28.0448 29.2821 27.968 29.4355 27.968L32.1137 27.9917C32.2316 27.9974 32.2849 28.0567 32.279 28.1687L32.2671 28.3457C32.2671 28.3692 32.2553 28.3812 32.2259 28.3812C31.4353 28.3516 30.7098 28.387 30.055 28.4814C29.8251 28.511 29.6953 28.6465 29.6776 28.8826L27.4476 53.1984L26.7987 59.7286C26.7811 59.8996 26.8576 59.9705 27.0229 59.947L59.0665 55.8295C59.2493 55.806 59.3733 55.6231 59.3261 55.4459L58.7596 53.1866L52.7015 26.6351C52.6778 26.5112 52.5717 26.4228 52.4477 26.4109C48.1059 26.0925 43.7407 25.8329 39.3518 25.6381C39.2872 25.6381 39.2576 25.6026 39.2517 25.538C39.2514 25.5328 39.2512 25.5277 39.2512 25.5227C39.2512 25.4495 39.292 25.4076 39.3637 25.4021C39.8474 25.3371 40.3195 25.2958 40.7855 25.2842C44.8147 25.172 48.9968 25.1368 53.3328 25.1663C53.5628 25.1663 53.7044 25.2784 53.7633 25.4967L60.8718 52.6147L62.1399 57.5461C62.1986 57.77 62.1101 57.8937 61.8802 57.9233Z" fill="white"/>
</svg>
